<svg id="Capa_1" enable-background="new 0 0 512 512" height="512" viewBox="0 0 512 512" width="512"
     xmlns="http://www.w3.org/2000/svg">
    <g>
        <path stroke-width="10" stroke="black"
              d="m417.601 158.285h-34.618c6.225-20.167 7.229-42.591 2.137-64.141h43.941c15.431 0 27.941-12.503 27.941-27.94 0-15.388-12.502-27.911-27.883-27.941-7.312-22.498-28.554-38.26-52.668-38.26-16.656 0-32.449 7.65-42.879 20.376-19.593-13.077-42.503-20.193-66.486-20.376-.313-.002-.622-.003-.934-.003-31.091 0-60.68 11.654-83.403 32.873-3.027 2.827-3.19 7.573-.362 10.601 2.827 3.026 7.572 3.191 10.601.362 19.932-18.614 45.887-28.836 73.166-28.836 28.059 0 55.444 10.892 76.333 32.128 32.788 33.335 39.926 82.818 19.444 123.382-1.867 3.697-.384 8.209 3.314 10.075 3.697 1.869 8.209.384 10.075-3.314.664-1.313 1.3-2.646 1.917-3.986h40.364c6.522 0 12.651 2.537 17.257 7.144 4.787 4.786 7.321 11.161 7.136 17.945-.369 13.07-11.54 23.703-24.903 23.703h-53.673c-13.62-46.455-56.618-80.48-107.42-80.48s-93.8 34.025-107.42 80.48h-32.009c-25.679 0-46.571-20.896-46.571-46.581 0-25.679 20.892-46.57 46.571-46.57h30.98c6.191 0 11.222-4.845 11.454-11.017.668-16.992 5.2-33.114 13.473-47.915 2.021-3.616.728-8.186-2.888-10.206-3.618-2.022-8.186-.729-10.206 2.888-8.75 15.657-13.971 33.301-15.186 51.25h-27.627c-33.951 0-61.571 27.621-61.571 61.57 0 33.956 27.621 61.581 61.571 61.581h28.717c-.794 5.368-1.21 10.857-1.21 16.442 0 61.71 50.22 111.923 111.923 111.923 38.518 0 73.86-19.435 94.539-51.988 2.221-3.496 1.187-8.131-2.31-10.353-3.495-2.219-8.131-1.187-10.353 2.31-4.052 6.379-8.76 12.171-13.997 17.324l-11.748-13.997c12.707-12.904 20.545-29.717 22.258-47.719h18.238c-.365 4.769-1.072 9.497-2.126 14.127-.92 4.039 1.608 8.059 5.647 8.979 4.036.92 8.059-1.608 8.979-5.647 3.048-13.381 3.643-27.48 1.585-41.4h50.381c21.404 0 39.301-17.172 39.897-38.286.299-10.952-3.794-21.24-11.524-28.969-7.44-7.441-17.336-11.538-27.864-11.538zm-72.066-128.817c7.608-9.038 18.952-14.465 30.915-14.465 19.107 0 35.741 13.567 39.551 32.258.712 3.493 3.784 6.002 7.349 6.002h5.71c7.136 0 12.941 5.805 12.941 12.941 0 7.14-5.797 12.94-12.941 12.94h-48.528c-5.95-15.701-15.18-30.161-27.352-42.535-2.461-2.503-5.015-4.879-7.645-7.141zm-186.46 224.05c0-53.442 43.479-96.922 96.923-96.922 50.92 0 92.794 39.469 96.635 89.421h-18.249c-3.79-39.917-37.492-71.249-78.385-71.249-43.424 0-78.751 35.327-78.751 78.75 0 20.797 8.161 40.538 22.617 55.219l-11.697 13.938c-17.944-17.6-29.093-42.099-29.093-69.157zm137.893 48.826c-3.171 2.663-3.583 7.393-.921 10.564l16.354 19.486c-16.179 11.595-35.763 18.047-56.404 18.047-21.001 0-40.461-6.717-56.352-18.111l16.299-19.421c2.661-3.172 2.25-7.901-.921-10.564-14.476-12.162-22.778-29.96-22.778-48.827 0-35.152 28.598-63.75 63.751-63.75s63.751 28.598 63.751 63.749c.001 18.868-8.302 36.664-22.779 48.827z"/>
        <path stroke-width="10" stroke="black"
              d="m255.997 229.16c-3.986 0-7.748.969-11.073 2.673l-11.912-11.912c-2.93-2.928-7.678-2.928-10.608 0-2.929 2.93-2.929 7.678 0 10.608l11.91 11.91c-1.707 3.326-2.676 7.09-2.676 11.079 0 13.432 10.927 24.359 24.359 24.359 13.431 0 24.358-10.927 24.358-24.359 0-13.431-10.927-24.358-24.358-24.358zm0 33.717c-5.16 0-9.359-4.198-9.359-9.359s4.198-9.358 9.359-9.358c5.16 0 9.358 4.197 9.358 9.358s-4.197 9.359-9.358 9.359z"/>
        <path stroke-width="10" stroke="black"
              d="m280.636 478.127-17.137 11.985v-79.542c0-4.143-3.357-7.5-7.5-7.5s-7.5 3.357-7.5 7.5v79.542l-17.137-11.985c-3.395-2.374-8.07-1.546-10.445 1.849-2.373 3.394-1.546 8.07 1.849 10.445l28.935 20.236c.011.007.022.012.033.02 2.526 1.751 5.957 1.782 8.529 0 .011-.007.023-.012.033-.02l28.935-20.236c3.395-2.374 4.222-7.051 1.849-10.445-2.373-3.395-7.049-4.223-10.444-1.849z"/>
        <path stroke-width="10" stroke="black"
              d="m422.708 478.127-17.137 11.985v-140.25c0-4.143-3.357-7.5-7.5-7.5s-7.5 3.357-7.5 7.5v140.25l-17.138-11.985c-3.396-2.374-8.07-1.544-10.445 1.849-2.373 3.395-1.546 8.07 1.849 10.445l28.936 20.236c.011.007.022.012.033.02 2.536 1.758 5.97 1.774 8.529 0 .011-.007.022-.012.033-.02l28.935-20.236c3.395-2.374 4.222-7.051 1.849-10.445-2.373-3.395-7.049-4.223-10.444-1.849z"/>
        <path stroke-width="10" stroke="black"
              d="m138.565 478.127-17.137 11.985v-140.25c0-4.143-3.357-7.5-7.5-7.5s-7.5 3.357-7.5 7.5v140.25l-17.138-11.985c-3.394-2.374-8.07-1.546-10.445 1.849-2.373 3.394-1.546 8.07 1.849 10.445l28.935 20.236c.011.007.022.012.033.02 2.579 1.787 6.011 1.745 8.529 0 .011-.007.023-.012.033-.02l28.935-20.236c3.395-2.374 4.222-7.051 1.849-10.445-2.373-3.395-7.05-4.223-10.443-1.849z"/>
    </g>
</svg>